<svg xmlns="http://www.w3.org/2000/svg" xmlns:xlink="http://www.w3.org/1999/xlink" version="1.1" width="256" height="256" viewBox="0 0 256 256" xml:space="preserve">

<defs>
</defs>
<g style="stroke: none; stroke-width: 0; stroke-dasharray: none; stroke-linecap: butt; stroke-linejoin: miter; stroke-miterlimit: 10; fill: none; fill-rule: nonzero; opacity: 1;" transform="translate(1.4065934065934016 1.4065934065934016) scale(2.81 2.81)" >
	<circle cx="45" cy="45" r="45" style="stroke: none; stroke-width: 1; stroke-dasharray: none; stroke-linecap: butt; stroke-linejoin: miter; stroke-miterlimit: 10; fill: rgb(255,208,77); fill-rule: nonzero; opacity: 1;" transform="  matrix(1 0 0 1 0 0) "/>
	<path d="M 45.986 53.404 l -9.39 -9.39 c -2.401 -2.401 -2.401 -6.295 0 -8.697 l 0 0 c 1.426 -1.426 1.572 -3.69 0.34 -5.287 l -4.382 -5.679 c -1.816 -2.354 -5.286 -2.577 -7.389 -0.475 l 0 0 c -6.887 6.887 -6.887 18.053 0 24.939 l 16.019 16.019 c 6.887 6.887 18.053 6.887 24.939 0 l 0 0 c 2.102 -2.102 1.879 -5.573 -0.475 -7.389 l -5.679 -4.382 c -1.597 -1.232 -3.861 -1.087 -5.287 0.34 l 0 0 C 52.281 55.806 48.387 55.806 45.986 53.404 z" style="stroke: none; stroke-width: 1; stroke-dasharray: none; stroke-linecap: butt; stroke-linejoin: miter; stroke-miterlimit: 10; fill: rgb(255,255,255); fill-rule: nonzero; opacity: 1;" transform=" matrix(1 0 0 1 0 0) " stroke-linecap="round" />
	<path d="M 67.568 48.649 c -1.343 0 -2.432 -1.089 -2.432 -2.432 c 0 -11.773 -9.578 -21.351 -21.351 -21.351 c -1.343 0 -2.432 -1.089 -2.432 -2.432 S 42.44 20 43.784 20 C 58.24 20 70 31.76 70 46.216 C 70 47.56 68.911 48.649 67.568 48.649 z" style="stroke: none; stroke-width: 1; stroke-dasharray: none; stroke-linecap: butt; stroke-linejoin: miter; stroke-miterlimit: 10; fill: rgb(255,255,255); fill-rule: nonzero; opacity: 1;" transform=" matrix(1 0 0 1 0 0) " stroke-linecap="round" />
	<path d="M 58.202 48.649 c -1.343 0 -2.432 -1.089 -2.432 -2.432 c 0 -6.609 -5.377 -11.986 -11.986 -11.986 c -1.343 0 -2.432 -1.089 -2.432 -2.432 c 0 -1.343 1.089 -2.432 2.432 -2.432 c 9.292 0 16.851 7.559 16.851 16.851 C 60.635 47.56 59.546 48.649 58.202 48.649 z" style="stroke: none; stroke-width: 1; stroke-dasharray: none; stroke-linecap: butt; stroke-linejoin: miter; stroke-miterlimit: 10; fill: rgb(255,255,255); fill-rule: nonzero; opacity: 1;" transform=" matrix(1 0 0 1 0 0) " stroke-linecap="round" />
</g>
</svg>